<?xml version="1.0" standalone="no"?>
<!DOCTYPE svg PUBLIC "-//W3C//DTD SVG 20010904//EN"
 "http://www.w3.org/TR/2001/REC-SVG-20010904/DTD/svg10.dtd">
<svg version="1.0" xmlns="http://www.w3.org/2000/svg"
 width="66.000000pt" height="132.000000pt" viewBox="0 0 66.000000 132.000000"
 preserveAspectRatio="xMidYMid meet">
<metadata>
Created by potrace 1.16, written by Peter Selinger 2001-2019
</metadata>
<g transform="translate(0.000000,132.000000) scale(0.100000,-0.100000)"
fill="#000000" stroke="none">
<path d="M40 1226 c0 -57 4 -87 13 -94 8 -7 71 -13 153 -14 l139 -3 -120 -44
c-66 -24 -132 -50 -147 -58 l-28 -14 0 -474 0 -475 75 0 74 0 3 104 3 103 130
-108 130 -109 75 3 75 2 0 445 0 445 -139 5 -138 5 138 51 139 51 0 129 0 129
-287 3 -288 2 0 -84z"/>
</g>
</svg>
